<?xml version="1.0" encoding="UTF-8" standalone="no"?>
<svg
   version="1.1"
   id="ISO-Logo"
   x="0px"
   y="0px"
   width="1535.8843"
   height="771.76422"
   viewBox="0 0 1535.8843 771.76422"
   enable-background="new 0 0 830 880"
   xml:space="preserve"
   sodipodi:docname="ISO and IEC logo combined.svg"
   inkscape:version="1.1.2 (0a00cf5339, 2022-02-04)"
   xmlns:inkscape="http://www.inkscape.org/namespaces/inkscape"
   xmlns:sodipodi="http://sodipodi.sourceforge.net/DTD/sodipodi-0.dtd"
   xmlns="http://www.w3.org/2000/svg"
   xmlns:svg="http://www.w3.org/2000/svg"
   xmlns:rdf="http://www.w3.org/1999/02/22-rdf-syntax-ns#"
   xmlns:cc="http://creativecommons.org/ns#"
   xmlns:dc="http://purl.org/dc/elements/1.1/"><defs
   id="defs249" /><sodipodi:namedview
   id="namedview247"
   pagecolor="#ffffff"
   bordercolor="#666666"
   borderopacity="1.0"
   inkscape:pageshadow="2"
   inkscape:pageopacity="0.0"
   inkscape:pagecheckerboard="0"
   showgrid="false"
   fit-margin-top="0"
   fit-margin-left="0"
   fit-margin-right="0"
   fit-margin-bottom="0"
   inkscape:zoom="0.56140359"
   inkscape:cx="485.39056"
   inkscape:cy="310.82808"
   inkscape:window-width="1850"
   inkscape:window-height="1136"
   inkscape:window-x="70"
   inkscape:window-y="27"
   inkscape:window-maximized="1"
   inkscape:current-layer="ISO-Logo" />
<title
   id="title231">ISO-Logo</title>


<g
   id="g894"
   transform="translate(-51.195972,-57.529869)"><g
     id="g882"><g
       id="g871"><rect
         id="BackgroundRed"
         fill="#e60010"
         width="727.91394"
         height="771.76422"
         x="51.195972"
         y="57.529869"
         style="stroke-width:0.877005" /><g
         id="ISOGlobe"
         transform="matrix(0.87700477,0,0,0.87700477,51.195972,57.529868)">
	<path
   fill="#ffffff"
   d="m 494.485,591.381 c -2.98,11.608 -6.23,22.526 -9.757,32.583 -23.02,-2.066 -46.787,-3.16 -70.797,-3.16 -23.008,0 -45.543,0.961 -67.324,2.797 -3.482,-9.96 -6.693,-20.748 -9.63,-32.22 h -17.812 c 2.902,11.826 6.145,23.189 9.73,33.912 -30.692,3.188 -61.086,8.785 -90.901,16.736 -17.306,-14.923 -32.691,-31.937 -45.804,-50.648 h -21 c 85.96,135.054 265.128,174.854 400.183,88.896 35.776,-22.772 66.121,-53.117 88.893,-88.896 h -20.989 c -13.335,19.032 -29.025,36.301 -46.698,51.392 -29.564,-8.013 -59.711,-13.699 -90.162,-17.012 3.646,-10.863 6.939,-22.378 9.888,-34.382 z m -239.442,64.181 c 26.327,-6.227 53.039,-10.692 79.958,-13.375 10.707,27.304 24.759,49.768 38.66,63.888 -42.939,-7.351 -83.562,-24.65 -118.618,-50.513 z m 160.692,53.916 c -22.02,0 -44.775,-25.892 -62.677,-68.93 19.896,-1.555 40.312,-2.382 60.875,-2.382 21.809,0 43.391,0.924 64.354,2.665 -17.879,42.86 -40.582,68.647 -62.552,68.647 z m 159.792,-53.257 c -34.857,25.493 -75.151,42.56 -117.719,49.854 13.842,-14.059 27.84,-36.396 38.522,-63.522 26.678,2.769 53.137,7.337 79.197,13.668 z"
   id="path234" />
	<path
   fill="#ffffff"
   d="m 639.271,280.039 h 20.994 C 574.3,144.983 395.129,105.188 260.077,191.154 c -35.773,22.77 -66.115,53.11 -88.885,88.885 h 20.994 c 13.34,-19.025 29.027,-36.292 46.691,-51.392 29.565,8.018 59.713,13.705 90.167,17.016 -3.649,10.871 -6.938,22.373 -9.884,34.375 h 17.814 c 2.981,-11.604 6.229,-22.524 9.76,-32.584 23.019,2.071 46.791,3.162 70.797,3.162 23.012,0 45.536,-0.961 67.326,-2.792 3.475,9.956 6.688,20.752 9.619,32.216 h 17.82 c -2.908,-11.827 -6.152,-23.188 -9.729,-33.909 30.687,-3.191 61.074,-8.788 90.888,-16.732 17.316,14.913 32.706,31.923 45.816,50.64 z M 335.134,228.88 c -26.674,-2.78 -53.132,-7.348 -79.195,-13.671 34.853,-25.501 75.147,-42.568 117.712,-49.861 -13.838,14.054 -27.845,36.405 -38.517,63.532 z m 82.399,4.375 c -21.805,0 -43.396,-0.92 -64.359,-2.659 17.88,-42.858 40.577,-68.651 62.557,-68.651 22.021,0 44.775,25.9 62.672,68.931 -19.89,1.558 -40.31,2.374 -60.87,2.379 z m 78.933,-4.026 c -10.714,-27.304 -24.762,-49.769 -38.665,-63.883 42.939,7.352 83.563,24.65 118.615,50.518 -26.323,6.227 -53.033,10.693 -79.95,13.365 z"
   id="path236" />
</g><g
         id="Lettering"
         transform="matrix(0.87700477,0,0,0.87700477,51.195972,57.529868)">
	<path
   fill="#ffffff"
   d="m 636.921,304.947 c -80.302,0 -137.694,46.683 -137.694,130.253 0,83.568 57.395,130.252 137.694,130.252 80.284,0 137.687,-46.684 137.687,-130.252 -0.003,-83.57 -57.403,-130.253 -137.687,-130.253 z m 0,201.325 c -31.828,0 -52.048,-20.217 -52.048,-71.072 0,-50.846 20.219,-71.063 52.048,-71.063 31.813,0 52.036,20.215 52.036,71.063 0,50.856 -20.226,71.072 -52.036,71.072 z"
   id="path239" />
	<path
   fill="#ffffff"
   d="m 478.651,384.943 v -75.541 h -60.665 c -18.628,-2.605 -37.396,-4.095 -56.201,-4.456 -69.891,0 -117.772,25.581 -117.772,82.084 0,111.225 160.296,62.735 160.296,104.369 0,12.797 -12.796,19.935 -44.313,19.935 -23.792,0 -44.605,-5.063 -53.523,-9.813 v -16.064 h -60.671 v 75.534 h 60.671 c 19.724,2.625 39.577,4.114 59.471,4.461 91.896,0 122.522,-37.464 122.522,-83.261 0,-110.624 -161.771,-59.782 -161.771,-104.083 0,-10.712 11.002,-19.034 39.248,-19.034 22.013,0 43.121,5.064 52.045,9.811 v 16.061 z"
   id="path241" />
	<polygon
   fill="#ffffff"
   points="227.647,372.365 227.647,309.916 65.579,309.916 65.579,372.365 106.311,372.365 106.311,499.057 65.579,499.057 65.579,561.506 227.647,561.506 227.647,499.057 186.906,499.057 186.906,372.365 "
   id="polygon243" />
</g></g></g></g>
<metadata
   id="metadata251"><rdf:RDF><cc:Work
       rdf:about=""><dc:title>ISO-Logo</dc:title></cc:Work></rdf:RDF></metadata><g
   id="g861"
   transform="translate(-51.195972,-60.060654)"><g
     id="g829"><g
       id="g798"><g
         id="g768"><g
           id="g739"><g
             id="g711"><g
               id="g684"><g
                 id="g658"><g
                   id="g633"><g
                     id="g609"><g
                       id="g586"><g
                         id="g564"><g
                           id="g543"><g
                             id="g523"><g
                               id="g504"><g
                                 id="g486"><g
                                   id="g469"><g
                                   id="g453"><g
                                   id="g438"><g
                                   id="surface1"
                                   transform="matrix(8.5751569,0,0,8.5751569,815.51715,60.060704)"><path
                                   style="fill:#0057a1;fill-opacity:1;fill-rule:nonzero;stroke:none"
                                   d="M 0,0 H 89.976562 V 90 H 0 Z m 0,0"
                                   id="path70" /><path
                                   style="fill:#ffffff;fill-opacity:1;fill-rule:nonzero;stroke:none"
                                   d="m 9.746094,19.472656 h 7.398437 V 55.933594 H 9.746094 Z m 0,0"
                                   id="path72" /><path
                                   style="fill:#ffffff;fill-opacity:1;fill-rule:nonzero;stroke:none"
                                   d="m 49.171875,18.613281 h -18 c -2.441406,0.234375 -4.324219,2.25 -4.390625,4.699219 v 26.714844 c 0.07031,3.019531 2.371094,5.519531 5.378906,5.839844 H 49.457031 V 52.792969 H 37.316406 c -2.195312,0 -3.203125,-1.054688 -3.203125,-2.371094 v -9.988281 c 0,-1.03125 -0.441406,-2.742188 0.855469,-2.742188 H 45.769531 V 34.945312 H 35.121094 c -1.382813,0 -1.117188,-1.007812 -1.117188,-1.863281 v -8.386719 c 0,-0.964843 0,-2.589843 1.796875,-2.589843 h 13.371094 z m 0,0"
                                   id="path74" /><path
                                   style="fill:#ffffff;fill-opacity:1;fill-rule:nonzero;stroke:none"
                                   d="M 80.933594,24.695312 C 78.035156,20.34375 73.125,17.761719 67.894531,17.847656 c -7.398437,0 -17.054687,6.933594 -17.054687,19.753906 -0.28125,4.878907 1.429687,9.664063 4.738281,13.257813 3.308594,3.597656 7.9375,5.695313 12.820313,5.820313 6.027343,-0.167969 11.402343,-3.839844 13.742187,-9.398438 L 80.40625,45.660156 c 0,0 -4.628906,8.316406 -11.566406,8.316406 -4.257813,0 -10.976563,-4.234374 -10.976563,-16.375 0,-13.476562 5.75,-16.902343 10.976563,-16.902343 4.128906,0.253906 7.902344,2.429687 10.183594,5.882812 z m 0,0"
                                   id="path76" /><path
                                   style="fill:#ffffff;fill-opacity:1;fill-rule:nonzero;stroke:none"
                                   d="M 69.671875,66.335938 H 9.746094 v -1.515626 h 61.902344 c 0,0 0,-0.152343 -1.03125,0.617188 -0.359376,0.246094 -0.679688,0.550781 -0.945313,0.898438 z m 0,0"
                                   id="path78" /><path
                                   style="fill:#ffffff;fill-opacity:1;fill-rule:nonzero;stroke:none"
                                   d="m 9.746094,69.035156 h 59.289062 v 1.539063 H 9.746094 Z m 0,0"
                                   id="path80" /><path
                                   style="fill:#ffffff;fill-opacity:1;fill-rule:nonzero;stroke:none"
                                   d="M 71.605469,75.027344 H 9.746094 v -1.511719 h 59.90625 L 70.375,74.195312 c 0.769531,0.789063 1.230469,0.832032 1.230469,0.832032 z m 0,0"
                                   id="path82" /><path
                                   style="fill:#ffffff;fill-opacity:1;fill-rule:nonzero;stroke:none"
                                   d="m 76.238281,75.25 c 2.171875,0.08984 4.183594,-1.152344 5.082031,-3.136719 C 82.214844,70.128906 81.8125,67.796875 80.304688,66.226562 78.800781,64.65625 76.488281,64.15625 74.46875,64.96875 72.449219,65.78125 71.125,67.738281 71.121094,69.914062 71.0625,72.800781 73.351562,75.1875 76.238281,75.25 Z m 0,0"
                                   id="path84" /><path
                                   style="fill:#0057a1;fill-opacity:1;fill-rule:nonzero;stroke:none"
                                   d="m 76.105469,77.289062 c 4.074219,0.01172 7.390625,-3.285156 7.398437,-7.359374 0.0078,-4.078126 -3.292968,-7.386719 -7.371094,-7.390626 -4.074218,-0.0039 -7.382812,3.300782 -7.382812,7.375 -0.0039,1.953126 0.765625,3.832032 2.148438,5.214844 1.378906,1.382813 3.253906,2.160156 5.207031,2.160156 z m 0,0"
                                   id="path86" /><path
                                   style="fill:#0059a1;fill-opacity:1;fill-rule:nonzero;stroke:none"
                                   d="m 76.105469,77.289062 c 4.074219,0.01172 7.390625,-3.285156 7.398437,-7.359374 0.0078,-4.078126 -3.292968,-7.386719 -7.371094,-7.390626 -4.074218,-0.0039 -7.382812,3.300782 -7.382812,7.375 -0.0039,1.953126 0.765625,3.832032 2.148438,5.214844 1.378906,1.382813 3.253906,2.160156 5.207031,2.160156 z m 0,0"
                                   id="path88" /><path
                                   style="fill:#ffffff;fill-opacity:1;fill-rule:nonzero;stroke:none"
                                   d="m 76.257812,75.25 c 2.175782,0.08984 4.1875,-1.152344 5.082032,-3.136719 0.894531,-1.984375 0.496094,-4.316406 -1.011719,-5.886719 -1.507813,-1.570312 -3.816406,-2.070312 -5.835937,-1.257812 -2.023438,0.8125 -3.347657,2.769531 -3.347657,4.945312 -0.0625,2.886719 2.226563,5.273438 5.113281,5.335938 z m 0,0"
                                   id="path90" /></g></g></g></g></g></g></g></g></g></g></g></g></g></g></g></g></g></g></g></g></svg>
