<?xml version="1.0" encoding="UTF-8"?>
<!DOCTYPE svg PUBLIC "-//W3C//DTD SVG 1.1//EN" "http://www.w3.org/Graphics/SVG/1.1/DTD/svg11.dtd">
<svg version="1.1" viewBox="0 0 187.8 48" xmlns="http://www.w3.org/2000/svg"><defs><clipPath id="b"><path d="m591.02 529.77h141.73v37.161h-141.73z"/></clipPath><radialGradient id="d" cx="0" cy="0" r="1" gradientTransform="matrix(12.288 0 0 -12.288 603.74 553.35)" gradientUnits="userSpaceOnUse"><stop stop-color="#fbc707" offset="0"/><stop stop-color="#f89c0e" offset="1"/></radialGradient><linearGradient id="e" x2="1" gradientTransform="matrix(14.417 -4.6705 -4.6705 -14.417 599.86 564.94)" gradientUnits="userSpaceOnUse"><stop stop-color="#1e5cb2" offset="0"/><stop stop-color="#0a2447" offset="1"/></linearGradient><linearGradient id="f" x2="1" gradientTransform="matrix(17.705 -5.7357 -5.7358 -17.705 598.79 542.67)" gradientUnits="userSpaceOnUse"><stop stop-color="#1e5cb2" offset="0"/><stop stop-color="#0a2447" offset="1"/></linearGradient><linearGradient id="g" x2="1" gradientTransform="matrix(14.728 -4.7854 -4.7854 -14.728 590.88 552.67)" gradientUnits="userSpaceOnUse"><stop stop-color="#1e5cb2" offset="0"/><stop stop-color="#0a2447" offset="1"/></linearGradient><linearGradient id="c" x1="-108.9" x2="-108.9" y1="-10.7" y2="24.6" gradientUnits="userSpaceOnUse"><stop stop-color="#0a2448" offset=".1"/><stop stop-color="#1e5cb3" offset="1"/></linearGradient></defs><g transform="matrix(1.3333 0 0 -1.3333 -788.61 755.04)"><g clip-path="url(#b)"><path transform="translate(594.73 533.07)" d="m0 0h-2.334v.909h2.648v.829h-3.591v-4.412h3.591v.83h-2.648v1.015h2.334zm4.544-2.788c1.447 0 2.086.608 2.086 1.579v2.947h-.982v-2.947c0-.538-.438-.741-1.104-.741-.667 0-1.105.203-1.105.741v2.947h-.981v-2.947c0-.971.638-1.579 2.086-1.579m7.286.114h1.143l-1.105 1.765c.515.239.762.715.762 1.253 0 .794-.409 1.394-1.638 1.394h-2.076v-4.412h.943v1.615h1.066zm-.19 3.009c0-.317-.105-.573-.686-.573h-1.095v1.147h1.095c.581 0 .686-.256.686-.574m7.534-.803c0 1.351-.562 2.321-2.219 2.321-1.648 0-2.22-.97-2.22-2.321 0-1.35.572-2.32 2.22-2.32 1.657 0 2.219.97 2.219 2.32m-.952 0c0-.838-.229-1.482-1.267-1.482-1.048 0-1.267.644-1.267 1.482 0 .839.219 1.483 1.267 1.483 1.038 0 1.267-.644 1.267-1.483m5.115-.759c1.219 0 1.657.698 1.657 1.492s-.429 1.473-1.657 1.473h-1.972v-4.412h.943v1.447zm.667 1.483c0-.326-.115-.662-.686-.662h-1.01v1.315h1.01c.571 0 .686-.327.686-.653m6.22-.256h-2.334v.909h2.648v.829h-3.591v-4.412h3.591v.83h-2.648v1.015h2.334zm6.762-2.674-2.009 4.527h-.667l-2.01-4.527h1.029l.4.989h1.819l.41-.989zm-2.343 3.195.591-1.456h-1.191zm8.325-3.195v4.412h-.943l.01-2.788-2.486 2.788h-.658v-4.412h.943l-.009 2.789 2.486-2.789zm4.81 2.206c0-1.27.648-2.32 2.267-2.32.448 0 1 .017 1.496.211v.83c-.467-.141-.915-.203-1.505-.203-.981 0-1.286.75-1.286 1.482 0 .733.305 1.483 1.286 1.483.59 0 1.038-.062 1.505-.203v.829c-.496.194-1.048.212-1.496.212-1.619 0-2.267-1.05-2.267-2.321m10.03-2.206v4.412h-.943v-1.738h-2.191v1.738h-.943v-4.412h.943v1.845h2.191v-1.845zm5.611 2.674h-2.334v.909h2.648v.829h-3.591v-4.412h3.591v.83h-2.648v1.015h2.334zm5.353-2.153 1.209 2.276-.028-2.797h.924v4.412h-1.038l-1.439-2.744-1.438 2.744h-1.038v-4.412h.924l-.029 2.797 1.21-2.276zm5.582 3.891h-.934v-4.412h.934zm2.4-2.206c0-1.27.648-2.32 2.267-2.32.448 0 1 .017 1.495.211v.83c-.466-.141-.914-.203-1.505-.203-.981 0-1.286.75-1.286 1.482 0 .733.305 1.483 1.286 1.483.591 0 1.039-.062 1.505-.203v.829c-.495.194-1.047.212-1.495.212-1.619 0-2.267-1.05-2.267-2.321m10.211-2.206-2.01 4.527h-.667l-2.01-4.527h1.029l.4.989h1.82l.409-.989zm-2.343 3.195.59-1.456h-1.19zm5.191 1.217h-.943v-4.412h3.591v.83h-2.648zm5.382-1.279c0 .371.276.556 1.066.556.601 0 1.124-.062 1.601-.203v.812c-.495.194-1.124.229-1.591.229-1.457 0-2-.6-2-1.438 0-.803.476-1.103 1.876-1.218.753-.062.991-.194.991-.529 0-.389-.296-.618-1.143-.618-.619 0-1.324.115-1.639.22v-.829c.286-.115 1.153-.229 1.629-.229 1.562 0 2.096.679 2.096 1.465 0 .855-.476 1.208-1.848 1.323-.743.062-1.038.141-1.038.459m11.906-3.133-2.01 4.527h-.666l-2.01-4.527h1.029l.4.989h1.819l.41-.989zm-2.343 3.195.591-1.456h-1.191zm6.125-2.471c-.981 0-1.286.75-1.286 1.482 0 .733.305 1.483 1.286 1.483.695 0 1.314-.115 1.686-.265v.83c-.343.185-1.143.273-1.686.273-1.62 0-2.258-1.05-2.258-2.321 0-1.27.638-2.32 2.258-2.32.581 0 1.295.079 1.771.317v2.242h-1.905v-.83h.972v-.829c-.248-.044-.524-.062-.838-.062m7.382 1.95h-2.334v.909h2.648v.829h-3.591v-4.412h3.591v.83h-2.648v1.015h2.334zm6.582-2.674v4.412h-.943l.009-2.788-2.486 2.788h-.657v-4.412h.943l-.01 2.789 2.486-2.789zm2.191 2.206c0-1.27.647-2.32 2.266-2.32.448 0 1.001.017 1.496.211v.83c-.467-.141-.915-.203-1.505-.203-.981 0-1.286.75-1.286 1.482 0 .733.305 1.483 1.286 1.483.59 0 1.038-.062 1.505-.203v.829c-.495.194-1.048.212-1.496.212-1.619 0-2.266-1.05-2.266-2.321m9.382 2.206-1.343-2.056-1.343 2.056h-1.172l2.048-2.85v-1.562h.943v1.571l2.038 2.841z" fill="#0a2448"/><path transform="translate(732.32 541.06)" d="m0 0-11.257 25.22h-3.734l-11.257-25.22h5.762l2.24 5.506h10.19l2.294-5.506zm-9.816 9.685h-6.669l3.361 8.112zm-27.092-9.685h5.281v24.581h-5.281v-9.685h-12.27v9.685h-5.282v-24.581h5.282v10.275h12.27zm-33.391-.639c2.508 0 5.602.098 8.376 1.18v4.621c-2.614-.787-5.121-1.131-8.429-1.131-5.495 0-7.202 4.179-7.202 8.259 0 4.081 1.707 8.26 7.202 8.26 3.308 0 5.815-.345 8.429-1.131v4.621c-2.774 1.082-5.868 1.18-8.376 1.18-9.069 0-12.697-5.85-12.697-12.93 0-7.079 3.628-12.929 12.697-12.929m-38.621.639h20.112v4.621h-14.831v5.654h13.071v4.621h-13.071v5.064h14.831v4.621h-20.112z" fill="url(#c)"/></g><path d="m616.02 565.64c-.223-.373-5.353-8.931-6.781-9.357-1.46-.435-11.013 3.631-11.013 3.631 2.007 2.719 4.809 4.702 7.954 5.726h-14.724v-24.575h6.652c-3.91 5.419-4.132 12.928-.042 18.651 0 0 6.868-7.779 6.838-9.298-.031-1.519-6.795-9.352-6.796-9.353h.525c1.852.767 9.294 3.788 10.535 3.373.554-.185 1.694-1.653 2.88-3.373h3.983v24.575z" fill="url(#d)"/><path d="m606.17 565.64c-3.141-1.025-5.938-3.009-7.943-5.726 0 0 9.552-4.066 11.013-3.63 1.422.423 6.516 8.914 6.78 9.356z" fill="url(#e)"/><path d="m598.63 541.06h13.416c-1.186 1.721-2.327 3.188-2.881 3.373-.079.026-.184.039-.311.039-1.857.001-8.49-2.695-10.224-3.412" fill="url(#f)"/><path d="m598.11 541.06s6.766 7.834 6.796 9.353-6.837 9.298-6.837 9.298c-4.091-5.722-3.869-13.232.041-18.651" fill="url(#g)"/></g></svg>
